# xmcd
#
# Track frame offsets:
#  150
#  14644
#  25663
#  43615
#  52390
#  72177
#  87921
#  116953
#  130864
#  144660
#  159373
#  169289
#
# Disc length: 2554 seconds
#
# Revision: 0
# Processed by: cddbd v1.5.1PL0 Copyright (c) Steve Scherf et al.
# Submitted via: Collectorz.com_Music_Collector 6.9
#
DISCID=ac09f80c
DTITLE=Sam Shinazzi - Stories You Wouldn’t Believe
DYEAR=2005
DGENRE=Americana
TTITLE0=Breakdown
TTITLE1=I Don't Belong Here
TTITLE2=Until Sunrise
TTITLE3=Out of the Question
TTITLE4=My Friend and a Free Day
TTITLE5=Scotty Come Home
TTITLE6=The Drifter
TTITLE7=A Night for Remembrance
TTITLE8=Wyoming
TTITLE9=Game Over
TTITLE10=Getting Too Old
TTITLE11=Trying Not to Think about it
EXTD=
EXTT0=
EXTT1=
EXTT2=
EXTT3=
EXTT4=
EXTT5=
EXTT6=
EXTT7=
EXTT8=
EXTT9=
EXTT10=
EXTT11=
PLAYORDER=
